<svg xmlns="http://www.w3.org/2000/svg" viewBox="0 0 196.75 196.75"><defs><style>.cls-1{fill:#fff;}</style></defs><g id="Capa_2" data-name="Capa 2"><g id="Capa_1-2" data-name="Capa 1"><g id="Capa_2-2" data-name="Capa 2"><g id="Capa_1-2-2" data-name="Capa 1-2"><path class="cls-1" d="M157.36,38.92l2.11-2.17a87,87,0,0,1,25.66,60l-3,.05a84,84,0,0,0-24.75-57.87m-5,5.09A76.9,76.9,0,0,1,175,96.93l-2.68.09A74.19,74.19,0,0,0,150.46,46Zm-6.48,6.63A67.58,67.58,0,0,1,165.71,97.1l-2.61.05a64.88,64.88,0,0,0-19-44.63Zm-6.58,6.75a58.11,58.11,0,0,1,17,39.89l-2.8,0a55.29,55.29,0,0,0-16.14-37.93Zm-6.82,7a48.24,48.24,0,0,1,14,33.06l-2.81,0a45.47,45.47,0,0,0-13.17-31.08Zm-22.31,1.64A34.42,34.42,0,1,1,66,86.6a34.42,34.42,0,0,1,44.16-20.55M132,6A98.35,98.35,0,1,0,190.8,132h0A98.35,98.35,0,0,0,132,6"/><path class="cls-1" d="M100.26,93.2a5.51,5.51,0,1,1-7.06,3.29,5.5,5.5,0,0,1,7.06-3.29h0M101.42,90a8.89,8.89,0,1,0,5.31,11.4h0A8.89,8.89,0,0,0,101.42,90"/></g></g></g></g></svg>